<?xml version="1.0" encoding="UTF-8"?>
<svg version="1.1" xmlns="http://www.w3.org/2000/svg" width="102" height="60">
<path d="M0 0 C33.66 0 67.32 0 102 0 C102 19.8 102 39.6 102 60 C68.34 60 34.68 60 0 60 C0 40.2 0 20.4 0 0 Z " fill="#FCFCFC" transform="translate(0,0)"/>
<path d="M0 0 C0.928125 0.20625 1.85625 0.4125 2.8125 0.625 C3.1425 1.945 3.4725 3.265 3.8125 4.625 C5.1325 4.625 6.4525 4.625 7.8125 4.625 C7.8125 8.255 7.8125 11.885 7.8125 15.625 C8.8025 15.955 9.7925 16.285 10.8125 16.625 C8.4375 16.8125 8.4375 16.8125 5.8125 16.625 C5.1525 15.635 4.4925 14.645 3.8125 13.625 C2.8225 15.11 2.8225 15.11 1.8125 16.625 C1.1525 16.295 0.4925 15.965 -0.1875 15.625 C-0.290625 14.84125 -0.39375 14.0575 -0.5 13.25 C-0.8403125 11.950625 -0.8403125 11.950625 -1.1875 10.625 C-2.033125 10.150625 -2.87875 9.67625 -3.75 9.1875 C-4.554375 8.671875 -5.35875 8.15625 -6.1875 7.625 C-6.6875 4.5625 -6.6875 4.5625 -6.1875 1.625 C-3.1875 -0.375 -3.1875 -0.375 0 0 Z " fill="#E0E9ED" transform="translate(28.1875,16.375)"/>
<path d="M0 0 C6.8359375 -0.1953125 6.8359375 -0.1953125 9 0 C11 2 11 2 11.3125 5.9375 C11.24008358 8.59276857 11.14641341 9.75841787 9.75 12.0625 C8 13 8 13 5.8125 12.6875 C5.214375 12.460625 4.61625 12.23375 4 12 C4.33 13.32 4.66 14.64 5 16 C3.68 16 2.36 16 1 16 C0.67 10.72 0.34 5.44 0 0 Z " fill="#9D9794" transform="translate(57,21)"/>
<path d="M0 0 C6.8359375 -0.29296875 6.8359375 -0.29296875 9 0 C11.32749345 3.49124017 11.50299316 4.89222251 11 9 C9.125 11.375 9.125 11.375 7 13 C6.34 13 5.68 13 5 13 C4.67 13.99 4.34 14.98 4 16 C2.68 15.67 1.36 15.34 0 15 C0 10.05 0 5.1 0 0 Z " fill="#969195" transform="translate(45,21)"/>
<path d="M0 0 C2 2 2 2 2.375 5.9375 C2.29383264 8.9082254 2.21468445 9.72965662 0.3125 12.125 C-2 13 -2 13 -4.6875 12.3125 C-7 11 -7 11 -8 9 C-8.45014808 3.71076012 -8.45014808 3.71076012 -6.8125 1.125 C-4.38241919 -0.38332602 -2.80984248 -0.36023622 0 0 Z " fill="#A19DA0" transform="translate(78,21)"/>
<path d="M0 0 C0.99 0 1.98 0 3 0 C3 0.99 3 1.98 3 3 C3.99 3.33 4.98 3.66 6 4 C5.01 4 4.02 4 3 4 C3 7.3 3 10.6 3 14 C3.66 14.33 4.32 14.66 5 15 C3.35 14.67 1.7 14.34 0 14 C-0.33 11.36 -0.66 8.72 -1 6 C-1.99 6 -2.98 6 -4 6 C-4.33 5.01 -4.66 4.02 -5 3 C-3.35 3 -1.7 3 0 3 C0 2.01 0 1.02 0 0 Z " fill="#60615E" transform="translate(92,18)"/>
<path d="M0 0 C2.475 0.495 2.475 0.495 5 1 C5 4.63 5 8.26 5 12 C3.35 12 1.7 12 0 12 C0 8.04 0 4.08 0 0 Z " fill="#605E5E" transform="translate(82,21)"/>
<path d="M0 0 C1.32 0 2.64 0 4 0 C4 3.63 4 7.26 4 11 C4.99 11.33 5.98 11.66 7 12 C5.33388095 12.042721 3.66617115 12.04063832 2 12 C0.26043342 10.26043342 0.62809614 7.8063378 0.4375 5.4375 C0.35371094 4.42558594 0.26992188 3.41367187 0.18359375 2.37109375 C0.12300781 1.58863281 0.06242187 0.80617188 0 0 Z " fill="#616362" transform="translate(32,21)"/>
<path d="M0 0 C0.66 0.33 1.32 0.66 2 1 C2 2.32 2 3.64 2 5 C3.5159375 6.175625 3.5159375 6.175625 5.0625 7.375 C6.031875 8.24125 7.00125 9.1075 8 10 C7.875 13.3125 7.875 13.3125 7 16 C6.34 15.67 5.68 15.34 5 15 C4.896875 14.21625 4.79375 13.4325 4.6875 12.625 C4.3471875 11.325625 4.3471875 11.325625 4 10 C3.154375 9.525625 2.30875 9.05125 1.4375 8.5625 C0.633125 8.046875 -0.17125 7.53125 -1 7 C-1.375 3.875 -1.375 3.875 -1 1 C-0.67 0.67 -0.34 0.34 0 0 Z " fill="#373244" transform="translate(23,17)"/>
</svg>
